<?xml version="1.0" encoding="utf-8"?>
<!DOCTYPE svg PUBLIC "-//W3C//DTD SVG 1.0//EN" "http://www.w3.org/TR/2001/REC-SVG-20010904/DTD/svg10.dtd">
<svg version="1.0" xmlns="http://www.w3.org/2000/svg" width="32px" height="32px" viewBox="0 0 32 32" preserveAspectRatio="xMidYMid meet">
 <g fill="#ffffff">
  <path d="M0 23.75 c0 -8.05 0.05 -8.25 1.05 -8.25 0.60 0 1.70 0.70 2.45 1.50 0.75 0.85 1.55 1.50 1.70 1.50 0.15 0 0.30 -2.90 0.30 -6.50 0 -3.55 -0.15 -6.50 -0.30 -6.50 -0.15 0 -0.95 0.70 -1.70 1.50 -0.75 0.85 -1.85 1.50 -2.45 1.50 -1 0 -1.05 -0.25 -1.05 -4.25 l0 -4.25 15.90 0 15.95 0 0.05 16 0.05 16 -15.95 0 -16 0 0 -8.25z m21.75 -0.05 c2.05 -2.05 3.75 -3.85 3.75 -4 0 -0.10 -1.80 -0.20 -4 -0.20 l-4 0 0 4 c0 2.20 0.10 4 0.25 4 0.15 0 1.95 -1.70 4 -3.80z m-8.25 -7.45 l0 -10.30 -1.75 -1.70 c-0.95 -0.95 -1.85 -1.75 -2 -1.75 -0.15 0 -0.25 4.60 -0.25 10.25 l0 10.30 1.65 1.70 c0.85 0.90 1.75 1.70 2 1.70 0.20 0.05 0.35 -4.55 0.35 -10.20z m13 -11 c0 -0.75 -2.55 -2.75 -3.45 -2.75 -0.85 0 -3.55 2.10 -3.55 2.75 0 0.15 1.60 0.25 3.50 0.25 1.95 0 3.50 -0.10 3.50 -0.25z"/>
 </g>
 <g fill="#aa5039">
  <path d="M16 25 l0 -7 7.05 0 c6.50 0 7 0.05 6.40 0.80 -1.30 1.60 -12.90 13.20 -13.20 13.20 -0.15 0 -0.25 -3.15 -0.25 -7z"/>
  <path d="M11.15 27.70 l-3.15 -3.20 0 -11.75 0 -11.75 1.75 0 c1.35 0 2.20 0.40 3.50 1.75 l1.75 1.70 0 13.30 c0 7.30 -0.15 13.25 -0.35 13.20 -0.25 0 -1.80 -1.45 -3.50 -3.25z"/>
  <path d="M3.15 19.70 l-3.15 -3.20 0 -4.50 0 -4.50 3.25 -3.25 c1.75 -1.80 3.35 -3.25 3.50 -3.25 0.15 0 0.25 4.95 0.25 11 0 6.05 -0.15 11 -0.35 10.95 -0.25 0 -1.80 -1.45 -3.50 -3.25z"/>
  <path d="M16.05 15.65 c0.05 -1.15 0.10 -1.20 0.30 -0.30 0.10 0.60 0.60 1.20 1.05 1.30 0.60 0.15 0.50 0.25 -0.25 0.30 -0.95 0.05 -1.15 -0.20 -1.10 -1.30z"/>
  <path d="M26.15 16.65 c1 -0.10 2.70 -0.10 3.75 0 1 0.10 0.15 0.20 -1.90 0.20 -2.05 0 -2.90 -0.10 -1.85 -0.20z"/>
  <path d="M28.90 8.15 c0.60 -0.10 1.60 -0.10 2.25 0 0.60 0.10 0.10 0.20 -1.15 0.20 -1.25 0 -1.75 -0.10 -1.10 -0.20z"/>
  <path d="M16 6.25 c0 -0.45 1.05 -1.80 2.30 -3 2.10 -2.05 2.50 -2.25 4.75 -2.25 2.35 0 2.65 0.15 5.20 2.75 1.50 1.50 2.75 2.85 2.75 3 0 0.15 -3.35 0.25 -7.50 0.25 -6.40 0 -7.50 -0.10 -7.50 -0.75z"/>
 </g>
 <g fill="#a8cde1">
  <path d="M16.20 12.50 l0.05 -4.25 7.90 -0.05 7.85 -0.05 0 4.45 0 4.40 -7.90 -0.15 -7.90 -0.10 0 -4.25z m3.80 2.50 c0 -0.85 0.35 -1 2.50 -1 2.15 0 2.50 0.15 2.50 1 0 0.65 0.35 1 1 1 0.65 0 1 -0.35 1 -1 0 -0.55 -0.20 -1 -0.50 -1 -0.25 0 -0.50 -0.45 -0.50 -1 0 -0.55 -0.20 -1 -0.50 -1 -0.25 0 -0.50 -0.35 -0.50 -0.80 0 -1.10 -1.25 -2.20 -2.50 -2.20 -1.25 0 -2.50 1.10 -2.50 2.20 0 0.45 -0.20 0.80 -0.50 0.80 -0.25 0 -0.50 0.45 -0.50 1 0 0.55 -0.20 1 -0.50 1 -0.25 0 -0.50 0.45 -0.50 1 0 0.65 0.35 1 1 1 0.65 0 1 -0.35 1 -1z m10 -2.50 c0 -3.15 -0.10 -3.50 -1 -3.50 -0.90 0 -1 0.35 -1 3.50 0 3.15 0.10 3.50 1 3.50 0.90 0 1 -0.35 1 -3.50z"/>
  <path d="M21 12.70 c0 -0.15 0.35 -0.60 0.75 -1 0.65 -0.70 0.85 -0.70 1.50 0 1.10 1.05 0.95 1.30 -0.75 1.30 -0.80 0 -1.50 -0.15 -1.50 -0.30z"/>
 </g>
</svg>