<?xml version="1.0" encoding="utf-8"?>
<!DOCTYPE svg PUBLIC "-//W3C//DTD SVG 1.0//EN" "http://www.w3.org/TR/2001/REC-SVG-20010904/DTD/svg10.dtd">
<svg version="1.0" xmlns="http://www.w3.org/2000/svg" width="500mm" height="142mm" viewBox="0 0 500 142" preserveAspectRatio="xMidYMid meet">
 <g fill="#a95640">
  <path d="M139.848 132.220 c-0.848 -1.978 -1.130 -31.077 -0.848 -64.415 0.848 -60.742 0.848 -60.742 9.323 -60.742 8.476 0 8.476 0 8.476 63.567 0 63.567 0 63.567 -7.911 64.415 -4.520 0.565 -8.193 -0.565 -9.041 -2.825z"/>
  <path d="M185.051 132.220 c-0.848 -1.978 -1.130 -31.077 -0.848 -64.415 0.848 -60.742 0.848 -60.742 9.323 -60.742 8.476 0 8.476 0 8.476 63.567 0 63.567 0 63.567 -7.911 64.415 -4.520 0.565 -8.193 -0.565 -9.041 -2.825z"/>
  <path d="M213.303 132.220 c-0.848 -2.260 -1.130 -31.077 -0.848 -64.415 0.848 -60.742 0.848 -60.742 19.211 -60.742 18.364 0 18.364 0 18.364 8.476 0 7.628 -0.848 8.476 -10.453 9.323 -10.736 0.848 -10.736 0.848 -10.736 27.405 0 26.557 0 26.557 10.736 27.405 9.041 0.848 10.453 1.695 10.453 7.911 0 6.215 -1.413 7.063 -10.453 7.911 -10.453 0.848 -10.736 1.130 -10.736 11.866 0 10.736 0.283 11.018 10.736 11.866 9.041 0.848 10.453 1.695 10.453 7.911 0 6.781 -0.848 7.063 -17.799 7.911 -12.713 0.565 -18.081 -0.283 -18.929 -2.825z"/>
  <path d="M256.247 133.633 c-4.803 -4.520 0.283 -17.234 27.122 -70.065 27.687 -54.527 29.100 -56.504 37.293 -56.504 8.476 0 8.476 0 8.476 63.567 0 63.567 0 63.567 -7.063 63.567 -6.781 0 -7.063 -0.848 -7.911 -18.929 -0.848 -18.081 -1.130 -18.929 -8.476 -19.776 -5.933 -0.565 -7.628 -2.260 -7.628 -7.911 0 -5.650 1.695 -7.346 7.911 -7.911 7.628 -0.848 7.628 -1.413 7.346 -19.776 0 -18.929 0 -18.929 -24.014 28.535 -21.472 42.943 -27.405 50.854 -33.055 45.203z"/>
  <path d="M342.416 133.350 c-2.543 -1.978 -3.390 -16.669 -2.825 -64.415 0.848 -61.872 0.848 -61.872 26.557 -62.720 19.494 -0.565 26.557 0.283 29.100 3.390 2.260 2.543 3.108 16.104 2.543 42.943 -0.848 38.140 -1.130 39.270 -7.063 40.118 -6.498 0.848 -6.498 0.848 2.260 18.081 9.323 18.364 9.041 25.709 -0.848 24.297 -4.803 -0.565 -9.323 -6.215 -16.951 -20.624 -5.650 -10.736 -11.583 -20.059 -13.278 -20.624 -1.695 -0.565 -3.108 7.063 -3.673 19.776 -0.848 18.081 -1.413 20.624 -6.498 21.472 -3.108 0.283 -7.346 -0.565 -9.323 -1.695z m40.401 -85.321 c0 -26.840 0 -26.840 -11.866 -27.687 -12.148 -0.848 -12.148 -0.848 -12.148 25.709 0 14.409 0.848 27.405 1.978 28.535 1.130 1.130 6.498 1.695 12.148 1.130 9.888 -0.848 9.888 -0.848 9.888 -27.687z"/>
  <path d="M434.235 133.633 c-1.130 -0.848 -1.978 -25.709 -1.978 -55.092 0 -53.114 0 -53.114 -9.041 -53.114 -12.431 0 -16.951 -3.390 -15.821 -11.583 0.848 -6.498 1.695 -6.781 29.100 -7.628 35.033 -1.130 40.966 0.283 40.966 9.041 0 7.346 -4.803 10.171 -17.234 10.171 -8.193 0 -8.193 0 -8.193 53.397 0 46.051 -0.565 53.679 -4.520 55.092 -5.650 2.260 -11.018 2.260 -13.278 -0.283z"/>
  <path d="M165.840 96.622 c-2.825 -2.825 -4.803 -7.346 -4.803 -9.888 0 -5.933 5.650 -9.323 8.476 -4.803 1.695 2.825 2.260 2.825 3.390 -0.283 1.695 -4.803 7.911 -0.565 7.911 5.650 0 2.825 -2.260 7.063 -5.085 9.888 -5.085 4.238 -5.650 4.238 -9.888 -0.565z"/>
 </g>
 <g fill="#82b7d7">
  <path d="M27.405 133.633 c-4.803 -4.520 0.283 -16.951 27.122 -70.065 27.687 -54.527 29.100 -56.504 37.293 -56.504 8.476 0 8.476 0 8.476 63.567 0 63.567 0 63.567 -7.063 63.567 -6.781 0 -7.063 -0.848 -7.911 -18.646 -0.848 -18.364 -0.848 -18.929 -9.323 -20.624 -7.063 -1.413 -8.476 -2.825 -7.628 -7.911 0.565 -4.803 3.108 -6.781 8.758 -7.346 7.628 -0.848 7.628 -1.413 7.346 -19.776 0 -18.929 0 -18.929 -24.014 28.535 -21.472 42.943 -27.405 50.854 -33.055 45.203z"/>
  <path d="M112.161 133.915 c-1.130 -1.130 -1.978 -25.144 -1.978 -53.679 0 -38.423 0.848 -51.984 3.673 -52.831 2.543 -1.130 2.543 -2.260 -0.283 -4.238 -2.260 -1.413 -3.390 -5.650 -2.825 -9.323 0.565 -5.368 2.543 -6.781 9.323 -6.781 6.781 0 8.758 1.413 9.323 6.781 0.565 3.673 -0.565 7.911 -2.825 9.041 -2.825 1.978 -2.825 3.108 0 4.803 2.543 1.978 3.390 14.691 2.825 54.527 -0.848 51.984 -0.848 51.984 -7.911 52.831 -3.955 0.565 -8.193 0 -9.323 -1.130z m12.148 -118.376 c0 -2.260 -1.978 -4.238 -4.238 -4.238 -2.260 0 -4.238 1.978 -4.238 4.238 0 2.260 1.978 4.238 4.238 4.238 2.260 0 4.238 -1.978 4.238 -4.238z"/>
 </g>
</svg>